<svg width="24" height="24" viewBox="0 0 24 24" fill="none" xmlns="http://www.w3.org/2000/svg">
<path d="M12 0C5.38336 0 7.74381e-05 5.38329 7.74381e-05 12C7.74381e-05 14.066 0.533815 16.0977 1.54599 17.8904L0.0193817 23.3373C-0.0307051 23.5163 0.0178165 23.7083 0.147207 23.8413C0.246859 23.9441 0.382511 23.9999 0.521815 23.9999C0.563554 23.9999 0.605815 23.9947 0.647032 23.9848L6.33188 22.5766C8.0677 23.5084 10.0227 23.9999 12 23.9999C18.6167 23.9999 24 18.6166 24 12C24 5.38329 18.6167 0 12 0ZM18.0365 16.2344C17.7798 16.945 16.5485 17.5935 15.9569 17.6806C15.4258 17.7584 14.7538 17.7918 14.016 17.5601C13.5689 17.4192 12.995 17.2325 12.2599 16.9189C9.16961 15.601 7.15153 12.5285 6.9971 12.3255C6.84319 12.1226 5.73919 10.6763 5.73919 9.17945C5.73919 7.68258 6.53484 6.94641 6.81762 6.64172C7.1004 6.33702 7.43379 6.26085 7.63936 6.26085C7.84492 6.26085 8.04996 6.26346 8.22996 6.27181C8.41936 6.2812 8.67344 6.20033 8.92335 6.79407C9.18005 7.40345 9.79622 8.90032 9.87239 9.05319C9.94961 9.20554 10.0007 9.38345 9.89848 9.5864C9.79622 9.78936 9.74509 9.91614 9.59066 10.0941C9.43622 10.272 9.26718 10.4906 9.1284 10.6273C8.97396 10.7791 8.81379 10.9434 8.99327 11.2481C9.17274 11.5528 9.791 12.5488 10.7072 13.3554C11.8837 14.3916 12.8766 14.713 13.1844 14.8653C13.4922 15.0177 13.6722 14.9921 13.8517 14.7892C14.0312 14.5857 14.6218 13.9007 14.8268 13.5965C15.0319 13.2923 15.2374 13.3424 15.5202 13.4441C15.803 13.5453 17.3176 14.281 17.6254 14.4333C17.9332 14.5857 18.1388 14.6619 18.216 14.7886C18.2932 14.9149 18.2932 15.5243 18.0365 16.2344Z" fill="white"/>
</svg>
